<svg width="28" height="28" viewBox="0 0 28 28" fill="none" xmlns="http://www.w3.org/2000/svg">
<path fill-rule="evenodd" clip-rule="evenodd" d="M5 12.3178C5 7.71789 8.84388 4 13.4934 4C18.1561 4 22 7.71789 22 12.3178C22 14.6357 21.157 16.7876 19.7695 18.6116C18.2388 20.6235 16.3522 22.3765 14.2285 23.7524C13.7425 24.0704 13.3039 24.0944 12.7704 23.7524C10.6347 22.3765 8.74809 20.6235 7.2305 18.6116C5.84198 16.7876 5 14.6357 5 12.3178ZM10.6942 12.5768C10.6942 14.1177 11.9517 15.3297 13.4934 15.3297C15.0362 15.3297 16.3058 14.1177 16.3058 12.5768C16.3058 11.0478 15.0362 9.77683 13.4934 9.77683C11.9517 9.77683 10.6942 11.0478 10.6942 12.5768Z" fill="white"/>
</svg>
